<svg width="30" height="30" viewBox="0 0 30 30" fill="none" xmlns="http://www.w3.org/2000/svg">
<g id="build_24px">
<path id="icon/action/build_24px" fill-rule="evenodd" clip-rule="evenodd" d="M16.9698 12.387L28.3198 23.737C28.8198 24.237 28.8198 25.0245 28.3198 25.4995L25.4448 28.3745C24.9573 28.862 24.1698 28.862 23.6823 28.3745L12.2948 16.987C9.39479 18.0745 6.00729 17.462 3.68229 15.137C0.807294 12.2745 0.544794 7.78698 2.86979 4.61198L7.65729 9.39948L9.43229 7.63698L4.63229 2.82448C7.81979 0.499479 12.2948 0.76198 15.1698 3.63698C17.5323 6.01198 18.1323 9.46198 16.9698 12.387ZM12.7448 13.912L24.5698 25.737L25.6698 24.6245L13.8573 12.812C14.4323 12.0745 14.8073 11.2495 14.9573 10.362C15.2698 8.62448 14.7573 6.76198 13.4073 5.41198C12.2198 4.23698 10.6573 3.68698 9.10729 3.77448L12.9698 7.63698L7.66979 12.937L3.80729 9.07448C3.71979 10.6245 4.26979 12.1995 5.45729 13.3745C6.75729 14.6745 8.54479 15.187 10.2448 14.937C11.1323 14.812 11.9823 14.4745 12.7448 13.912Z" fill="#2492F4"/>
</g>
</svg>
