<svg width="30" height="30" viewBox="0 0 30 30" fill="none" xmlns="http://www.w3.org/2000/svg">
<g id="card_giftcard_24px">
<path id="icon/action/card_giftcard_24px" fill-rule="evenodd" clip-rule="evenodd" d="M25 8.125H22.275C22.4125 7.7375 22.5 7.3125 22.5 6.875C22.5 4.8 20.825 3.125 18.75 3.125C17.4375 3.125 16.3 3.8 15.625 4.8125L15 5.65L14.375 4.8C13.7 3.8 12.5625 3.125 11.25 3.125C9.175 3.125 7.5 4.8 7.5 6.875C7.5 7.3125 7.5875 7.7375 7.725 8.125H5C3.6125 8.125 2.5125 9.2375 2.5125 10.625L2.5 24.375C2.5 25.7625 3.6125 26.875 5 26.875H25C26.3875 26.875 27.5 25.7625 27.5 24.375V10.625C27.5 9.2375 26.3875 8.125 25 8.125ZM18.75 5.625C19.4375 5.625 20 6.1875 20 6.875C20 7.5625 19.4375 8.125 18.75 8.125C18.0625 8.125 17.5 7.5625 17.5 6.875C17.5 6.1875 18.0625 5.625 18.75 5.625ZM12.5 6.875C12.5 6.1875 11.9375 5.625 11.25 5.625C10.5625 5.625 10 6.1875 10 6.875C10 7.5625 10.5625 8.125 11.25 8.125C11.9375 8.125 12.5 7.5625 12.5 6.875ZM5 24.375V21.875H25V24.375H5ZM5 10.625V18.125H25V10.625H18.65L21.25 14.1625L19.225 15.625L15 9.875L10.775 15.625L8.75 14.1625L11.35 10.625H5Z" fill="#2492F4"/>
</g>
</svg>
