<svg width="42" height="32" viewBox="0 0 42 32" fill="none" xmlns="http://www.w3.org/2000/svg">
<g id="category_24px">
<path id="icon/maps/category_24px" fill-rule="evenodd" clip-rule="evenodd" d="M4.375 11.25L11.25 0L18.125 11.25H4.375ZM13.6625 8.75L11.25 4.8L8.825 8.75H13.6625ZM18.125 13.75C15.0125 13.75 12.5 16.2625 12.5 19.375C12.5 22.4875 15.0125 25 18.125 25C21.2375 25 23.75 22.4875 23.75 19.375C23.75 16.2625 21.2375 13.75 18.125 13.75ZM15 19.375C15 21.1 16.4 22.5 18.125 22.5C19.85 22.5 21.25 21.1 21.25 19.375C21.25 17.65 19.85 16.25 18.125 16.25C16.4 16.25 15 17.65 15 19.375ZM0 24.375H10V14.375H0V24.375ZM7.5 16.875H2.5V21.875H7.5V16.875Z" fill="#2492F4"/>
</g>
</svg>
