<svg width="30" height="30" viewBox="0 0 30 30" fill="none" xmlns="http://www.w3.org/2000/svg">
<g id="perm_data_setting_24px">
<path id="icon/action/perm_data_setting_24px" fill-rule="evenodd" clip-rule="evenodd" d="M22.4875 14.4625H25V0L0 25H14.45V22.5H6.0375L22.4875 6.0375V14.4625ZM29.7125 25.4L28.375 24.3625C28.4 24.1625 28.425 23.9625 28.425 23.75C28.425 23.5375 28.4125 23.3375 28.375 23.1375L29.7 22.1C29.8125 22 29.85 21.8375 29.775 21.7L28.525 19.5375C28.45 19.4 28.2875 19.35 28.1375 19.4L26.5875 20.025C26.2625 19.775 25.9125 19.5625 25.525 19.4125L25.2875 17.7625C25.275 17.6125 25.1375 17.5 24.9875 17.5H22.4875C22.3375 17.5 22.2 17.6125 22.175 17.7625L21.9375 19.4125C21.5625 19.575 21.2 19.775 20.875 20.025L19.325 19.4C19.1875 19.35 19.025 19.4 18.9375 19.5375L17.6875 21.7C17.6125 21.8375 17.6375 22 17.7625 22.1L19.0875 23.1375C19.0625 23.3375 19.05 23.5375 19.05 23.75C19.05 23.9625 19.0625 24.1625 19.0875 24.3625L17.7625 25.4C17.65 25.5 17.6125 25.6625 17.6875 25.8L18.9375 27.9625C19.0125 28.1 19.175 28.15 19.325 28.1L20.875 27.475C21.2 27.725 21.55 27.9375 21.9375 28.0875L22.175 29.7375C22.2 29.8875 22.325 30 22.4875 30H24.9875C25.1375 30 25.275 29.8875 25.3 29.7375L25.5375 28.0875C25.9125 27.925 26.275 27.725 26.5875 27.475L28.15 28.1C28.2875 28.15 28.45 28.1 28.5375 27.9625L29.7875 25.8C29.8625 25.6625 29.825 25.5 29.7125 25.4ZM21.8625 23.75C21.8625 24.7875 22.7 25.625 23.7375 25.625C24.775 25.625 25.6125 24.7875 25.6125 23.75C25.6125 22.7125 24.775 21.875 23.7375 21.875C22.7 21.875 21.8625 22.7125 21.8625 23.75Z" fill="#2492F4"/>
</g>
</svg>
