<svg width="35" height="35" viewBox="0 0 35 35" fill="none" xmlns="http://www.w3.org/2000/svg">
<g id="perm_identity_24px">
<path id="icon/action/perm_identity_24px" fill-rule="evenodd" clip-rule="evenodd" d="M17.5 5.83334C14.2771 5.83334 11.6667 8.44376 11.6667 11.6667C11.6667 14.8896 14.2771 17.5 17.5 17.5C20.7229 17.5 23.3333 14.8896 23.3333 11.6667C23.3333 8.44376 20.7229 5.83334 17.5 5.83334ZM20.4167 11.6667C20.4167 10.0625 19.1042 8.75001 17.5 8.75001C15.8958 8.75001 14.5833 10.0625 14.5833 11.6667C14.5833 13.2708 15.8958 14.5833 17.5 14.5833C19.1042 14.5833 20.4167 13.2708 20.4167 11.6667ZM26.25 24.7917C25.9583 23.7563 21.4375 21.875 17.5 21.875C13.5625 21.875 9.04166 23.7563 8.75 24.8063V26.25H26.25V24.7917ZM5.83333 24.7917C5.83333 20.9125 13.6062 18.9583 17.5 18.9583C21.3937 18.9583 29.1667 20.9125 29.1667 24.7917V29.1667H5.83333V24.7917Z" fill="black" fill-opacity="0.54"/>
</g>
</svg>
